<svg xmlns="http://www.w3.org/2000/svg" viewBox="90 90 844 844"><defs>
  <radialGradient id="fbg" cx="50%" cy="30%" r="85%"><stop offset="0" stop-color="#3a3a42"/><stop offset=".38" stop-color="#16161a"/><stop offset=".75" stop-color="#060607"/><stop offset="1" stop-color="#000"/></radialGradient>
  <linearGradient id="frim" x1="0" y1="0" x2="0" y2="1"><stop offset="0" stop-color="#fff" stop-opacity=".46"/><stop offset=".45" stop-color="#fff" stop-opacity=".07"/><stop offset="1" stop-color="#fff" stop-opacity=".16"/></linearGradient>
  <radialGradient id="fglow" cx="50%" cy="58%" r="52%"><stop offset="0" stop-color="#8e48ff" stop-opacity=".30"/><stop offset=".5" stop-color="#4f7dff" stop-opacity=".07"/><stop offset="1" stop-color="#000" stop-opacity="0"/></radialGradient>
  <linearGradient id="fbar" x1="0" y1="0" x2="0" y2="1"><stop offset="0" stop-color="#ffffff"/><stop offset=".44" stop-color="#e8e9ef"/><stop offset=".56" stop-color="#c3c6d0"/><stop offset="1" stop-color="#f2f3f7"/></linearGradient>
  <linearGradient id="fring" x1="0" y1="0" x2="0" y2="1"><stop offset="0" stop-color="#fbfbfd"/><stop offset=".5" stop-color="#9da1ae"/><stop offset="1" stop-color="#d7d9e1"/></linearGradient>
  <radialGradient id="fnode" cx="40%" cy="34%" r="70%"><stop offset="0" stop-color="#fff"/><stop offset=".55" stop-color="#eceaf6"/><stop offset="1" stop-color="#a9a4c4"/></radialGradient>
  <linearGradient id="fsheen" x1="0" y1="0" x2="0" y2="1"><stop offset="0" stop-color="#fff" stop-opacity=".12"/><stop offset="1" stop-color="#fff" stop-opacity="0"/></linearGradient>
  <filter id="fshadow" x="-20%" y="-20%" width="140%" height="140%"><feDropShadow dx="0" dy="16" stdDeviation="17" flood-color="#000" flood-opacity=".55"/></filter>
  <filter id="flift" x="-30%" y="-30%" width="160%" height="160%"><feDropShadow dx="0" dy="6" stdDeviation="9" flood-color="#000" flood-opacity=".6"/></filter>
  <filter id="fbloom" x="-50%" y="-50%" width="200%" height="200%"><feGaussianBlur stdDeviation="14"/></filter></defs><rect x="100" y="100" width="824" height="824" rx="186" fill="#000" filter="url(#fshadow)"/><rect x="100" y="100" width="824" height="824" rx="186" fill="url(#frim)"/><rect x="105" y="105" width="814" height="814" rx="181" fill="url(#fbg)"/><circle cx="512" cy="548" r="380" fill="url(#fglow)"/><path d="M105 310 Q512 170 919 310 L919 286 Q919 105 738 105 L286 105 Q105 105 105 286Z" fill="url(#fsheen)"/><g transform="translate(512 512) scale(0.86) translate(-512 -512)"><g opacity=".55" filter="url(#fbloom)"><circle cx="512" cy="512" r="232" fill="none" stroke="#b9a4ff" stroke-opacity=".35" stroke-width="40"/></g><g filter="url(#flift)"><circle cx="512" cy="512" r="232" fill="none" stroke="url(#fring)" stroke-width="36"/><rect x="335" y="442" width="58" height="140" rx="29" fill="url(#fbar)"/><rect x="409" y="390" width="58" height="244" rx="29" fill="url(#fbar)"/><rect x="483" y="351" width="58" height="322" rx="29" fill="url(#fbar)"/><rect x="557" y="390" width="58" height="244" rx="29" fill="url(#fbar)"/><rect x="631" y="442" width="58" height="140" rx="29" fill="url(#fbar)"/><circle cx="512" cy="280" r="56" fill="#09090b"/><circle cx="512" cy="280" r="42" fill="url(#fnode)"/><circle cx="499" cy="265" r="11" fill="#fff" opacity=".9"/><circle cx="712.9178936779898" cy="628" r="56" fill="#09090b"/><circle cx="712.9178936779898" cy="628" r="42" fill="url(#fnode)"/><circle cx="699.9178936779898" cy="613" r="11" fill="#fff" opacity=".9"/><circle cx="311.0821063220102" cy="628" r="56" fill="#09090b"/><circle cx="311.0821063220102" cy="628" r="42" fill="url(#fnode)"/><circle cx="298.0821063220102" cy="613" r="11" fill="#fff" opacity=".9"/></g></g></svg>
